<svg xmlns="http://www.w3.org/2000/svg" xmlns:xlink="http://www.w3.org/1999/xlink" contentStyleType="text/css" height="687px" preserveAspectRatio="none" style="width:1016px;height:687px;background:#FFFFFF;" version="1.1" viewBox="0 0 1016 687" width="1016px" zoomAndPan="magnify"><defs/><g><!--class CentroControl--><g id="elem_CentroControl"><rect codeLine="1" fill="#F1F1F1" height="48" id="CentroControl" rx="2.5" ry="2.5" style="stroke:#181818;stroke-width:0.5;" width="129.9863" x="194" y="7"/><ellipse cx="209" cy="23" fill="#ADD1B2" rx="11" ry="11" style="stroke:#181818;stroke-width:1.0;"/><path d="M211.9688,28.6406 Q211.3906,28.9375 210.75,29.0781 Q210.1094,29.2344 209.4063,29.2344 Q206.9063,29.2344 205.5781,27.5938 Q204.2656,25.9375 204.2656,22.8125 Q204.2656,19.6875 205.5781,18.0313 Q206.9063,16.375 209.4063,16.375 Q210.1094,16.375 210.75,16.5313 Q211.4063,16.6875 211.9688,16.9844 L211.9688,19.7031 Q211.3438,19.125 210.75,18.8594 Q210.1563,18.5781 209.5313,18.5781 Q208.1875,18.5781 207.5,19.6563 Q206.8125,20.7188 206.8125,22.8125 Q206.8125,24.9063 207.5,25.9844 Q208.1875,27.0469 209.5313,27.0469 Q210.1563,27.0469 210.75,26.7813 Q211.3438,26.5 211.9688,25.9219 L211.9688,28.6406 Z " fill="#000000"/><text fill="#000000" font-family="sans-serif" font-size="14" lengthAdjust="spacing" textLength="97.9863" x="223" y="27.8467">CentroControl</text><line style="stroke:#181818;stroke-width:0.5;" x1="195" x2="322.9863" y1="39" y2="39"/><line style="stroke:#181818;stroke-width:0.5;" x1="195" x2="322.9863" y1="47" y2="47"/></g><!--class Tarifa--><g id="elem_Tarifa"><rect codeLine="2" fill="#F1F1F1" height="48" id="Tarifa" rx="2.5" ry="2.5" style="stroke:#181818;stroke-width:0.5;" width="72.2842" x="153" y="632"/><ellipse cx="168" cy="648" fill="#ADD1B2" rx="11" ry="11" style="stroke:#181818;stroke-width:1.0;"/><path d="M170.9688,653.6406 Q170.3906,653.9375 169.75,654.0781 Q169.1094,654.2344 168.4063,654.2344 Q165.9063,654.2344 164.5781,652.5938 Q163.2656,650.9375 163.2656,647.8125 Q163.2656,644.6875 164.5781,643.0313 Q165.9063,641.375 168.4063,641.375 Q169.1094,641.375 169.75,641.5313 Q170.4063,641.6875 170.9688,641.9844 L170.9688,644.7031 Q170.3438,644.125 169.75,643.8594 Q169.1563,643.5781 168.5313,643.5781 Q167.1875,643.5781 166.5,644.6563 Q165.8125,645.7188 165.8125,647.8125 Q165.8125,649.9063 166.5,650.9844 Q167.1875,652.0469 168.5313,652.0469 Q169.1563,652.0469 169.75,651.7813 Q170.3438,651.5 170.9688,650.9219 L170.9688,653.6406 Z " fill="#000000"/><text fill="#000000" font-family="sans-serif" font-size="14" lengthAdjust="spacing" textLength="40.2842" x="182" y="652.8467">Tarifa</text><line style="stroke:#181818;stroke-width:0.5;" x1="154" x2="224.2842" y1="664" y2="664"/><line style="stroke:#181818;stroke-width:0.5;" x1="154" x2="224.2842" y1="672" y2="672"/></g><!--class Incidencia--><g id="elem_Incidencia"><rect codeLine="3" fill="#F1F1F1" height="48" id="Incidencia" rx="2.5" ry="2.5" style="stroke:#181818;stroke-width:0.5;" width="103.1279" x="242.5" y="507"/><ellipse cx="257.5" cy="523" fill="#ADD1B2" rx="11" ry="11" style="stroke:#181818;stroke-width:1.0;"/><path d="M260.4688,528.6406 Q259.8906,528.9375 259.25,529.0781 Q258.6094,529.2344 257.9063,529.2344 Q255.4063,529.2344 254.0781,527.5938 Q252.7656,525.9375 252.7656,522.8125 Q252.7656,519.6875 254.0781,518.0313 Q255.4063,516.375 257.9063,516.375 Q258.6094,516.375 259.25,516.5313 Q259.9063,516.6875 260.4688,516.9844 L260.4688,519.7031 Q259.8438,519.125 259.25,518.8594 Q258.6563,518.5781 258.0313,518.5781 Q256.6875,518.5781 256,519.6563 Q255.3125,520.7188 255.3125,522.8125 Q255.3125,524.9063 256,525.9844 Q256.6875,527.0469 258.0313,527.0469 Q258.6563,527.0469 259.25,526.7813 Q259.8438,526.5 260.4688,525.9219 L260.4688,528.6406 Z " fill="#000000"/><text fill="#000000" font-family="sans-serif" font-size="14" lengthAdjust="spacing" textLength="71.1279" x="271.5" y="527.8467">Incidencia</text><line style="stroke:#181818;stroke-width:0.5;" x1="243.5" x2="344.6279" y1="539" y2="539"/><line style="stroke:#181818;stroke-width:0.5;" x1="243.5" x2="344.6279" y1="547" y2="547"/></g><!--class Ruta--><g id="elem_Ruta"><rect codeLine="5" fill="#F1F1F1" height="48" id="Ruta" rx="2.5" ry="2.5" style="stroke:#181818;stroke-width:0.5;" width="64.6689" x="345.5" y="132"/><ellipse cx="360.5" cy="148" fill="#ADD1B2" rx="11" ry="11" style="stroke:#181818;stroke-width:1.0;"/><path d="M363.4688,153.6406 Q362.8906,153.9375 362.25,154.0781 Q361.6094,154.2344 360.9063,154.2344 Q358.4063,154.2344 357.0781,152.5938 Q355.7656,150.9375 355.7656,147.8125 Q355.7656,144.6875 357.0781,143.0313 Q358.4063,141.375 360.9063,141.375 Q361.6094,141.375 362.25,141.5313 Q362.9063,141.6875 363.4688,141.9844 L363.4688,144.7031 Q362.8438,144.125 362.25,143.8594 Q361.6563,143.5781 361.0313,143.5781 Q359.6875,143.5781 359,144.6563 Q358.3125,145.7188 358.3125,147.8125 Q358.3125,149.9063 359,150.9844 Q359.6875,152.0469 361.0313,152.0469 Q361.6563,152.0469 362.25,151.7813 Q362.8438,151.5 363.4688,150.9219 L363.4688,153.6406 Z " fill="#000000"/><text fill="#000000" font-family="sans-serif" font-size="14" lengthAdjust="spacing" textLength="32.6689" x="374.5" y="152.8467">Ruta</text><line style="stroke:#181818;stroke-width:0.5;" x1="346.5" x2="409.1689" y1="164" y2="164"/><line style="stroke:#181818;stroke-width:0.5;" x1="346.5" x2="409.1689" y1="172" y2="172"/></g><!--class Parada--><g id="elem_Parada"><rect codeLine="6" fill="#F1F1F1" height="48" id="Parada" rx="2.5" ry="2.5" style="stroke:#181818;stroke-width:0.5;" width="80.8223" x="504.5" y="507"/><ellipse cx="519.5" cy="523" fill="#ADD1B2" rx="11" ry="11" style="stroke:#181818;stroke-width:1.0;"/><path d="M522.4688,528.6406 Q521.8906,528.9375 521.25,529.0781 Q520.6094,529.2344 519.9063,529.2344 Q517.4063,529.2344 516.0781,527.5938 Q514.7656,525.9375 514.7656,522.8125 Q514.7656,519.6875 516.0781,518.0313 Q517.4063,516.375 519.9063,516.375 Q520.6094,516.375 521.25,516.5313 Q521.9063,516.6875 522.4688,516.9844 L522.4688,519.7031 Q521.8438,519.125 521.25,518.8594 Q520.6563,518.5781 520.0313,518.5781 Q518.6875,518.5781 518,519.6563 Q517.3125,520.7188 517.3125,522.8125 Q517.3125,524.9063 518,525.9844 Q518.6875,527.0469 520.0313,527.0469 Q520.6563,527.0469 521.25,526.7813 Q521.8438,526.5 522.4688,525.9219 L522.4688,528.6406 Z " fill="#000000"/><text fill="#000000" font-family="sans-serif" font-size="14" lengthAdjust="spacing" textLength="48.8223" x="533.5" y="527.8467">Parada</text><line style="stroke:#181818;stroke-width:0.5;" x1="505.5" x2="584.3223" y1="539" y2="539"/><line style="stroke:#181818;stroke-width:0.5;" x1="505.5" x2="584.3223" y1="547" y2="547"/></g><!--class Vehiculo--><g id="elem_Vehiculo"><rect codeLine="8" fill="#F1F1F1" height="48" id="Vehiculo" rx="2.5" ry="2.5" style="stroke:#181818;stroke-width:0.5;" width="91.9785" x="630" y="257"/><ellipse cx="645" cy="273" fill="#ADD1B2" rx="11" ry="11" style="stroke:#181818;stroke-width:1.0;"/><path d="M647.9688,278.6406 Q647.3906,278.9375 646.75,279.0781 Q646.1094,279.2344 645.4063,279.2344 Q642.9063,279.2344 641.5781,277.5938 Q640.2656,275.9375 640.2656,272.8125 Q640.2656,269.6875 641.5781,268.0313 Q642.9063,266.375 645.4063,266.375 Q646.1094,266.375 646.75,266.5313 Q647.4063,266.6875 647.9688,266.9844 L647.9688,269.7031 Q647.3438,269.125 646.75,268.8594 Q646.1563,268.5781 645.5313,268.5781 Q644.1875,268.5781 643.5,269.6563 Q642.8125,270.7188 642.8125,272.8125 Q642.8125,274.9063 643.5,275.9844 Q644.1875,277.0469 645.5313,277.0469 Q646.1563,277.0469 646.75,276.7813 Q647.3438,276.5 647.9688,275.9219 L647.9688,278.6406 Z " fill="#000000"/><text fill="#000000" font-family="sans-serif" font-size="14" lengthAdjust="spacing" textLength="59.9785" x="659" y="277.8467">Vehiculo</text><line style="stroke:#181818;stroke-width:0.5;" x1="631" x2="720.9785" y1="289" y2="289"/><line style="stroke:#181818;stroke-width:0.5;" x1="631" x2="720.9785" y1="297" y2="297"/></g><!--class Bus--><g id="elem_Bus"><rect codeLine="9" fill="#F1F1F1" height="48" id="Bus" rx="2.5" ry="2.5" style="stroke:#181818;stroke-width:0.5;" width="57.7715" x="665" y="507"/><ellipse cx="680" cy="523" fill="#ADD1B2" rx="11" ry="11" style="stroke:#181818;stroke-width:1.0;"/><path d="M682.9688,528.6406 Q682.3906,528.9375 681.75,529.0781 Q681.1094,529.2344 680.4063,529.2344 Q677.9063,529.2344 676.5781,527.5938 Q675.2656,525.9375 675.2656,522.8125 Q675.2656,519.6875 676.5781,518.0313 Q677.9063,516.375 680.4063,516.375 Q681.1094,516.375 681.75,516.5313 Q682.4063,516.6875 682.9688,516.9844 L682.9688,519.7031 Q682.3438,519.125 681.75,518.8594 Q681.1563,518.5781 680.5313,518.5781 Q679.1875,518.5781 678.5,519.6563 Q677.8125,520.7188 677.8125,522.8125 Q677.8125,524.9063 678.5,525.9844 Q679.1875,527.0469 680.5313,527.0469 Q681.1563,527.0469 681.75,526.7813 Q682.3438,526.5 682.9688,525.9219 L682.9688,528.6406 Z " fill="#000000"/><text fill="#000000" font-family="sans-serif" font-size="14" lengthAdjust="spacing" textLength="25.7715" x="694" y="527.8467">Bus</text><line style="stroke:#181818;stroke-width:0.5;" x1="666" x2="721.7715" y1="539" y2="539"/><line style="stroke:#181818;stroke-width:0.5;" x1="666" x2="721.7715" y1="547" y2="547"/></g><!--class Tren--><g id="elem_Tren"><rect codeLine="10" fill="#F1F1F1" height="48" id="Tren" rx="2.5" ry="2.5" style="stroke:#181818;stroke-width:0.5;" width="63.7939" x="758" y="507"/><ellipse cx="773" cy="523" fill="#ADD1B2" rx="11" ry="11" style="stroke:#181818;stroke-width:1.0;"/><path d="M775.9688,528.6406 Q775.3906,528.9375 774.75,529.0781 Q774.1094,529.2344 773.4063,529.2344 Q770.9063,529.2344 769.5781,527.5938 Q768.2656,525.9375 768.2656,522.8125 Q768.2656,519.6875 769.5781,518.0313 Q770.9063,516.375 773.4063,516.375 Q774.1094,516.375 774.75,516.5313 Q775.4063,516.6875 775.9688,516.9844 L775.9688,519.7031 Q775.3438,519.125 774.75,518.8594 Q774.1563,518.5781 773.5313,518.5781 Q772.1875,518.5781 771.5,519.6563 Q770.8125,520.7188 770.8125,522.8125 Q770.8125,524.9063 771.5,525.9844 Q772.1875,527.0469 773.5313,527.0469 Q774.1563,527.0469 774.75,526.7813 Q775.3438,526.5 775.9688,525.9219 L775.9688,528.6406 Z " fill="#000000"/><text fill="#000000" font-family="sans-serif" font-size="14" lengthAdjust="spacing" textLength="31.7939" x="787" y="527.8467">Tren</text><line style="stroke:#181818;stroke-width:0.5;" x1="759" x2="820.7939" y1="539" y2="539"/><line style="stroke:#181818;stroke-width:0.5;" x1="759" x2="820.7939" y1="547" y2="547"/></g><!--class Metro--><g id="elem_Metro"><rect codeLine="11" fill="#F1F1F1" height="48" id="Metro" rx="2.5" ry="2.5" style="stroke:#181818;stroke-width:0.5;" width="72.5029" x="857.5" y="507"/><ellipse cx="872.5" cy="523" fill="#ADD1B2" rx="11" ry="11" style="stroke:#181818;stroke-width:1.0;"/><path d="M875.4688,528.6406 Q874.8906,528.9375 874.25,529.0781 Q873.6094,529.2344 872.9063,529.2344 Q870.4063,529.2344 869.0781,527.5938 Q867.7656,525.9375 867.7656,522.8125 Q867.7656,519.6875 869.0781,518.0313 Q870.4063,516.375 872.9063,516.375 Q873.6094,516.375 874.25,516.5313 Q874.9063,516.6875 875.4688,516.9844 L875.4688,519.7031 Q874.8438,519.125 874.25,518.8594 Q873.6563,518.5781 873.0313,518.5781 Q871.6875,518.5781 871,519.6563 Q870.3125,520.7188 870.3125,522.8125 Q870.3125,524.9063 871,525.9844 Q871.6875,527.0469 873.0313,527.0469 Q873.6563,527.0469 874.25,526.7813 Q874.8438,526.5 875.4688,525.9219 L875.4688,528.6406 Z " fill="#000000"/><text fill="#000000" font-family="sans-serif" font-size="14" lengthAdjust="spacing" textLength="40.5029" x="886.5" y="527.8467">Metro</text><line style="stroke:#181818;stroke-width:0.5;" x1="858.5" x2="929.0029" y1="539" y2="539"/><line style="stroke:#181818;stroke-width:0.5;" x1="858.5" x2="929.0029" y1="547" y2="547"/></g><!--class Horario--><g id="elem_Horario"><rect codeLine="13" fill="#F1F1F1" height="48" id="Horario" rx="2.5" ry="2.5" style="stroke:#181818;stroke-width:0.5;" width="83.6387" x="926" y="382"/><ellipse cx="941" cy="398" fill="#ADD1B2" rx="11" ry="11" style="stroke:#181818;stroke-width:1.0;"/><path d="M943.9688,403.6406 Q943.3906,403.9375 942.75,404.0781 Q942.1094,404.2344 941.4063,404.2344 Q938.9063,404.2344 937.5781,402.5938 Q936.2656,400.9375 936.2656,397.8125 Q936.2656,394.6875 937.5781,393.0313 Q938.9063,391.375 941.4063,391.375 Q942.1094,391.375 942.75,391.5313 Q943.4063,391.6875 943.9688,391.9844 L943.9688,394.7031 Q943.3438,394.125 942.75,393.8594 Q942.1563,393.5781 941.5313,393.5781 Q940.1875,393.5781 939.5,394.6563 Q938.8125,395.7188 938.8125,397.8125 Q938.8125,399.9063 939.5,400.9844 Q940.1875,402.0469 941.5313,402.0469 Q942.1563,402.0469 942.75,401.7813 Q943.3438,401.5 943.9688,400.9219 L943.9688,403.6406 Z " fill="#000000"/><text fill="#000000" font-family="sans-serif" font-size="14" lengthAdjust="spacing" textLength="51.6387" x="955" y="402.8467">Horario</text><line style="stroke:#181818;stroke-width:0.5;" x1="927" x2="1008.6387" y1="414" y2="414"/><line style="stroke:#181818;stroke-width:0.5;" x1="927" x2="1008.6387" y1="422" y2="422"/></g><!--class Conductor--><g id="elem_Conductor"><rect codeLine="14" fill="#F1F1F1" height="48" id="Conductor" rx="2.5" ry="2.5" style="stroke:#181818;stroke-width:0.5;" width="104.4814" x="261" y="382"/><ellipse cx="276" cy="398" fill="#ADD1B2" rx="11" ry="11" style="stroke:#181818;stroke-width:1.0;"/><path d="M278.9688,403.6406 Q278.3906,403.9375 277.75,404.0781 Q277.1094,404.2344 276.4063,404.2344 Q273.9063,404.2344 272.5781,402.5938 Q271.2656,400.9375 271.2656,397.8125 Q271.2656,394.6875 272.5781,393.0313 Q273.9063,391.375 276.4063,391.375 Q277.1094,391.375 277.75,391.5313 Q278.4063,391.6875 278.9688,391.9844 L278.9688,394.7031 Q278.3438,394.125 277.75,393.8594 Q277.1563,393.5781 276.5313,393.5781 Q275.1875,393.5781 274.5,394.6563 Q273.8125,395.7188 273.8125,397.8125 Q273.8125,399.9063 274.5,400.9844 Q275.1875,402.0469 276.5313,402.0469 Q277.1563,402.0469 277.75,401.7813 Q278.3438,401.5 278.9688,400.9219 L278.9688,403.6406 Z " fill="#000000"/><text fill="#000000" font-family="sans-serif" font-size="14" lengthAdjust="spacing" textLength="72.4814" x="290" y="402.8467">Conductor</text><line style="stroke:#181818;stroke-width:0.5;" x1="262" x2="364.4814" y1="414" y2="414"/><line style="stroke:#181818;stroke-width:0.5;" x1="262" x2="364.4814" y1="422" y2="422"/></g><!--class Pasajero--><g id="elem_Pasajero"><rect codeLine="15" fill="#F1F1F1" height="48" id="Pasajero" rx="2.5" ry="2.5" style="stroke:#181818;stroke-width:0.5;" width="91.7188" x="471" y="382"/><ellipse cx="486" cy="398" fill="#ADD1B2" rx="11" ry="11" style="stroke:#181818;stroke-width:1.0;"/><path d="M488.9688,403.6406 Q488.3906,403.9375 487.75,404.0781 Q487.1094,404.2344 486.4063,404.2344 Q483.9063,404.2344 482.5781,402.5938 Q481.2656,400.9375 481.2656,397.8125 Q481.2656,394.6875 482.5781,393.0313 Q483.9063,391.375 486.4063,391.375 Q487.1094,391.375 487.75,391.5313 Q488.4063,391.6875 488.9688,391.9844 L488.9688,394.7031 Q488.3438,394.125 487.75,393.8594 Q487.1563,393.5781 486.5313,393.5781 Q485.1875,393.5781 484.5,394.6563 Q483.8125,395.7188 483.8125,397.8125 Q483.8125,399.9063 484.5,400.9844 Q485.1875,402.0469 486.5313,402.0469 Q487.1563,402.0469 487.75,401.7813 Q488.3438,401.5 488.9688,400.9219 L488.9688,403.6406 Z " fill="#000000"/><text fill="#000000" font-family="sans-serif" font-size="14" lengthAdjust="spacing" textLength="59.7188" x="500" y="402.8467">Pasajero</text><line style="stroke:#181818;stroke-width:0.5;" x1="472" x2="561.7188" y1="414" y2="414"/><line style="stroke:#181818;stroke-width:0.5;" x1="472" x2="561.7188" y1="422" y2="422"/></g><!--class Persona--><g id="elem_Persona"><rect codeLine="16" fill="#F1F1F1" height="48" id="Persona" rx="2.5" ry="2.5" style="stroke:#181818;stroke-width:0.5;" width="88.123" x="381" y="507"/><ellipse cx="396" cy="523" fill="#ADD1B2" rx="11" ry="11" style="stroke:#181818;stroke-width:1.0;"/><path d="M398.9688,528.6406 Q398.3906,528.9375 397.75,529.0781 Q397.1094,529.2344 396.4063,529.2344 Q393.9063,529.2344 392.5781,527.5938 Q391.2656,525.9375 391.2656,522.8125 Q391.2656,519.6875 392.5781,518.0313 Q393.9063,516.375 396.4063,516.375 Q397.1094,516.375 397.75,516.5313 Q398.4063,516.6875 398.9688,516.9844 L398.9688,519.7031 Q398.3438,519.125 397.75,518.8594 Q397.1563,518.5781 396.5313,518.5781 Q395.1875,518.5781 394.5,519.6563 Q393.8125,520.7188 393.8125,522.8125 Q393.8125,524.9063 394.5,525.9844 Q395.1875,527.0469 396.5313,527.0469 Q397.1563,527.0469 397.75,526.7813 Q398.3438,526.5 398.9688,525.9219 L398.9688,528.6406 Z " fill="#000000"/><text fill="#000000" font-family="sans-serif" font-size="14" lengthAdjust="spacing" textLength="56.123" x="410" y="527.8467">Persona</text><line style="stroke:#181818;stroke-width:0.5;" x1="382" x2="468.123" y1="539" y2="539"/><line style="stroke:#181818;stroke-width:0.5;" x1="382" x2="468.123" y1="547" y2="547"/></g><!--link CentroControl to Tarifa--><g id="link_CentroControl_Tarifa"><path codeLine="18" d="M193.85,36.05 C118.88,44.66 6,71.48 6,155 C6,155 6,155 6,532 C6,602.05 99.51,634.81 152.85,647.79 " fill="none" id="CentroControl-Tarifa" style="stroke:#181818;stroke-width:1.0;"/><text fill="#000000" font-family="sans-serif" font-size="13" lengthAdjust="spacing" textLength="70.4526" x="7" y="348.0669">Administra</text></g><!--link CentroControl to Incidencia--><g id="link_CentroControl_Incidencia"><path codeLine="19" d="M193.82,53.68 C150.3,72.74 101,105.29 101,155 C101,155 101,155 101,407 C101,474.15 185.11,506.24 242.28,520.3 " fill="none" id="CentroControl-Incidencia" style="stroke:#181818;stroke-width:1.0;"/><text fill="#000000" font-family="sans-serif" font-size="13" lengthAdjust="spacing" textLength="70.4526" x="102" y="285.5669">Administra</text></g><!--link CentroControl to Horario--><g id="link_CentroControl_Horario"><path codeLine="20" d="M324.21,54.2 C349.88,63.28 379.5,74.18 406,85 C653.09,185.9 783.54,127.98 952,335 C962.7,348.15 966.55,367.08 967.8,381.95 " fill="none" id="CentroControl-Horario" style="stroke:#181818;stroke-width:1.0;"/><text fill="#000000" font-family="sans-serif" font-size="13" lengthAdjust="spacing" textLength="46.998" x="836" y="223.0669">Maneja</text></g><!--link CentroControl to Ruta--><g id="link_CentroControl_Ruta"><path codeLine="21" d="M281.38,55.14 C302.66,77.13 326.1373,101.3845 347.3773,123.3445 " fill="none" id="CentroControl-to-Ruta" style="stroke:#181818;stroke-width:1.0;"/><polygon fill="#181818" points="355.72,131.97,354.4238,124.8763,347.3773,123.3445,348.6735,130.4381,355.72,131.97" style="stroke:#181818;stroke-width:1.0;"/><text fill="#000000" font-family="sans-serif" font-size="13" lengthAdjust="spacing" textLength="70.4526" x="327" y="98.0669">Administra</text></g><!--link Ruta to Parada--><g id="link_Ruta_Parada"><path codeLine="23" d="M380.78,180.3 C387.38,229.24 407.12,345.17 454,430 C470.46,459.79 488.6575,479.7651 508.9875,498.5551 " fill="none" id="Ruta-to-Parada" style="stroke:#181818;stroke-width:1.0;"/><polygon fill="#181818" points="517.8,506.7,516.1087,499.69,508.9875,498.5551,510.6788,505.565,517.8,506.7" style="stroke:#181818;stroke-width:1.0;"/><text fill="#000000" font-family="sans-serif" font-size="13" lengthAdjust="spacing" textLength="58.2144" x="420" y="348.0669">Contiene</text></g><!--link Ruta to Vehiculo--><g id="link_Ruta_Vehiculo"><path codeLine="24" d="M410.74,170.51 C463.89,192.45 557.988,231.2911 618.718,256.3611 " fill="none" id="Ruta-to-Vehiculo" style="stroke:#181818;stroke-width:1.0;"/><polygon fill="#181818" points="629.81,260.94,625.7903,254.9532,618.718,256.3611,622.7377,262.3479,629.81,260.94" style="stroke:#181818;stroke-width:1.0;"/><text fill="#000000" font-family="sans-serif" font-size="13" lengthAdjust="spacing" textLength="70.4526" x="545" y="223.0669">Administra</text></g><!--link Ruta to Tarifa--><g id="link_Ruta_Tarifa"><path codeLine="25" d="M352.35,180.27 C312.66,218.09 237.65,297.25 206,382 C173.35,469.42 179.5182,571.5497 184.7482,619.8497 " fill="none" id="Ruta-to-Tarifa" style="stroke:#181818;stroke-width:1.0;"/><polygon fill="#181818" points="186.04,631.78,189.3708,625.3843,184.7482,619.8497,181.4173,626.2455,186.04,631.78" style="stroke:#181818;stroke-width:1.0;"/><text fill="#000000" font-family="sans-serif" font-size="13" lengthAdjust="spacing" textLength="35.7881" x="207" y="410.5669">Tiene</text></g><!--link Vehiculo to Bus--><g id="link_Vehiculo_Bus"><path codeLine="27" d="M677.69,305.33 C681.13,352.72 687.5986,441.7771 691.0186,488.9571 " fill="none" id="Vehiculo-to-Bus" style="stroke:#181818;stroke-width:1.0;"/><polygon fill="none" points="692.32,506.91,697.0029,488.5233,685.0343,489.3909,692.32,506.91" style="stroke:#181818;stroke-width:1.0;"/></g><!--link Vehiculo to Tren--><g id="link_Vehiculo_Tren"><path codeLine="28" d="M689.85,305.19 C695.13,314.35 701.06,325.06 706,335 C736.17,395.75 759.7391,453.1719 774.3391,490.0819 " fill="none" id="Vehiculo-to-Tren" style="stroke:#181818;stroke-width:1.0;"/><polygon fill="none" points="780.96,506.82,779.9185,487.8749,768.7598,492.2889,780.96,506.82" style="stroke:#181818;stroke-width:1.0;"/></g><!--link Vehiculo to Metro--><g id="link_Vehiculo_Metro"><path codeLine="29" d="M703.55,305.17 C713.75,314.15 725.21,324.73 735,335 C790.76,393.49 838.1982,454.8515 866.1982,492.3915 " fill="none" id="Vehiculo-to-Metro" style="stroke:#181818;stroke-width:1.0;"/><polygon fill="none" points="876.96,506.82,871.0077,488.8042,861.3887,495.9787,876.96,506.82" style="stroke:#181818;stroke-width:1.0;"/></g><!--link Vehiculo to Horario--><g id="link_Vehiculo_Horario"><path codeLine="31" d="M722.1,288.34 C764.76,295.49 829.09,309.58 880,335 C904.1,347.03 918.9424,358.3332 935.6624,373.6532 " fill="none" id="Vehiculo-to-Horario" style="stroke:#181818;stroke-width:1.0;"/><polygon fill="#181818" points="944.51,381.76,942.7885,374.7574,935.6624,373.6532,937.3839,380.6558,944.51,381.76" style="stroke:#181818;stroke-width:1.0;"/><text fill="#000000" font-family="sans-serif" font-size="13" lengthAdjust="spacing" textLength="36.353" x="907" y="348.0669">Sigue</text></g><!--link Vehiculo to Conductor--><g id="link_Vehiculo_Conductor"><path codeLine="32" d="M629.82,283.53 C547.9,287.16 381.63,298.87 338,335 C324.18,346.44 320.0932,354.274 317.3332,369.854 " fill="none" id="Vehiculo-to-Conductor" style="stroke:#181818;stroke-width:1.0;"/><polygon fill="#181818" points="315.24,381.67,320.2253,376.4597,317.3332,369.854,312.3479,375.0642,315.24,381.67" style="stroke:#181818;stroke-width:1.0;"/><text fill="#000000" font-family="sans-serif" font-size="13" lengthAdjust="spacing" textLength="35.7881" x="339" y="348.0669">Tiene</text></g><!--link Vehiculo to Pasajero--><g id="link_Vehiculo_Pasajero"><path codeLine="33" d="M629.93,291.65 C602.85,299.38 569.6,312.74 547,335 C534.1,347.71 529.74,355.3413 525.39,370.4013 " fill="none" id="Vehiculo-to-Pasajero" style="stroke:#181818;stroke-width:1.0;"/><polygon fill="none" points="522.06,381.93,527.5679,377.2756,525.39,370.4013,519.8821,375.0556,522.06,381.93" style="stroke:#181818;stroke-width:1.0;"/><text fill="#000000" font-family="sans-serif" font-size="13" lengthAdjust="spacing" textLength="58.2144" x="548" y="348.0669">Contiene</text></g><!--link Vehiculo to Parada--><g id="link_Vehiculo_Parada"><path codeLine="34" d="M664.95,305.1 C647.21,341.9 610.89,415.91 577,477 C571.47,486.96 565.04,497.76 559.39,507 " fill="none" id="Vehiculo-Parada" style="stroke:#181818;stroke-width:1.0;stroke-dasharray:7.0,7.0;"/><text fill="#000000" font-family="sans-serif" font-size="13" lengthAdjust="spacing" textLength="31.4399" x="627" y="410.5669">llega</text></g><!--link Conductor to Persona--><g id="link_Conductor_Persona"><path codeLine="36" d="M315.93,430.11 C318.77,444.81 324.3,463.54 335,477 C346.96,492.05 348.4771,495.4215 364.8571,503.9315 " fill="none" id="Conductor-to-Persona" style="stroke:#181818;stroke-width:1.0;"/><polygon fill="none" points="380.83,512.23,367.6232,498.6072,362.0909,509.2558,380.83,512.23" style="stroke:#181818;stroke-width:1.0;"/></g><!--link Conductor to Incidencia--><g id="link_Conductor_Incidencia"><path codeLine="37" d="M278.32,430.25 C268.98,438.44 260.06,448.52 255,460 C247.87,476.17 257.42,493.52 268.84,506.91 " fill="none" id="Conductor-Incidencia" style="stroke:#181818;stroke-width:1.0;"/><text fill="#000000" font-family="sans-serif" font-size="13" lengthAdjust="spacing" textLength="30.3862" x="256" y="473.0669">Crea</text></g><!--link Pasajero to Persona--><g id="link_Pasajero_Persona"><path codeLine="39" d="M499.7,430.14 C483.25,452.13 469.429,470.5943 453.009,492.5543 " fill="none" id="Pasajero-to-Persona" style="stroke:#181818;stroke-width:1.0;"/><polygon fill="none" points="442.23,506.97,457.8142,496.1473,448.2037,488.9613,442.23,506.97" style="stroke:#181818;stroke-width:1.0;"/></g><!--link Pasajero to Parada--><g id="link_Pasajero_Parada"><path codeLine="40" d="M522.27,430.14 C527.27,452.13 532.0959,473.3095 537.0959,495.2695 " fill="none" id="Pasajero-to-Parada" style="stroke:#181818;stroke-width:1.0;"/><polygon fill="none" points="539.76,506.97,542.3282,500.2317,537.0959,495.2695,534.5278,502.0077,539.76,506.97" style="stroke:#181818;stroke-width:1.0;"/><text fill="#000000" font-family="sans-serif" font-size="13" lengthAdjust="spacing" textLength="35.0708" x="533" y="473.0669">Llega</text></g><!--link Pasajero to Incidencia--><g id="link_Pasajero_Incidencia"><path codeLine="41" d="M475.06,430.14 C435.19,452.13 375.56,485.01 335.76,506.97 " fill="none" id="Pasajero-Incidencia" style="stroke:#181818;stroke-width:1.0;"/><text fill="#000000" font-family="sans-serif" font-size="13" lengthAdjust="spacing" textLength="30.3862" x="419" y="473.0669">Crea</text></g><!--link Persona to Tarifa--><g id="link_Persona_Tarifa"><path codeLine="43" d="M380.89,554.99 C335.93,578.42 267.02,614.34 225.17,636.15 " fill="none" id="Persona-Tarifa" style="stroke:#181818;stroke-width:1.0;stroke-dasharray:7.0,7.0;"/><text fill="#000000" font-family="sans-serif" font-size="13" lengthAdjust="spacing" textLength="32.0239" x="323" y="598.0669">Paga</text></g><!--SRC=[XL71QiCm3BtdAt8kk1_Gmw3DPOCLGbjw5uwMkRWsoF5j7p_RjHMx7UnYalUUzAGdgS6vVa2pa1riV7Kd4tO1Kb-GVpwCL1E61xgCdFnIo1489YQk-AsarpR_7hmh3GbD_ZnYC2e5xvQ2LT678IOl5qlStC4DgT0ZahCcc3KZzqBaUVjTlv_koYYt4BoArZt-4UQXWke81c-lYarAeEtI9IXoZqW26miK6bofaazRoZIlSKbb7Sk543zlASudAENwXEM0AtHJhNHMiyUMvDZPkQ8jNw7UY0NRxRglrZZ7wt2xD4wvMWstjnW8GndRD5KLQbUdp-HKSNysVBI88tAm8ypm2m00]--></g></svg>