<svg xmlns="http://www.w3.org/2000/svg" xmlns:xlink="http://www.w3.org/1999/xlink" contentStyleType="text/css" height="639px" preserveAspectRatio="none" style="width:271px;height:639px;background:#FFFFFF;" version="1.1" viewBox="0 0 271 639" width="271px" zoomAndPan="magnify"><defs/><g><ellipse cx="76" cy="16" fill="#222222" rx="10" ry="10" style="stroke:#222222;stroke-width:1.0;"/><g id="Esperando"><rect fill="#F1F1F1" height="50" rx="12.5" ry="12.5" style="stroke:#181818;stroke-width:0.5;" width="94.2998" x="29" y="103"/><line style="stroke:#181818;stroke-width:0.5;" x1="29" x2="123.2998" y1="129.2969" y2="129.2969"/><text fill="#000000" font-family="sans-serif" font-size="14" lengthAdjust="spacing" textLength="74.2998" x="39" y="120.9951">Esperando</text></g><g id="Abordando"><rect fill="#F1F1F1" height="50" rx="12.5" ry="12.5" style="stroke:#181818;stroke-width:0.5;" width="96.5762" x="27.5" y="230"/><line style="stroke:#181818;stroke-width:0.5;" x1="27.5" x2="124.0762" y1="256.2969" y2="256.2969"/><text fill="#000000" font-family="sans-serif" font-size="14" lengthAdjust="spacing" textLength="76.5762" x="37.5" y="247.9951">Abordando</text></g><g id="EnTransito"><rect fill="#F1F1F1" height="50" rx="12.5" ry="12.5" style="stroke:#181818;stroke-width:0.5;" width="94.7168" x="28.5" y="357"/><line style="stroke:#181818;stroke-width:0.5;" x1="28.5" x2="123.2168" y1="383.2969" y2="383.2969"/><text fill="#000000" font-family="sans-serif" font-size="14" lengthAdjust="spacing" textLength="74.7168" x="38.5" y="374.9951">EnTransito</text></g><g id="LlegadoADestino"><rect fill="#F1F1F1" height="50" rx="12.5" ry="12.5" style="stroke:#181818;stroke-width:0.5;" width="138.3027" x="7" y="484"/><line style="stroke:#181818;stroke-width:0.5;" x1="7" x2="145.3027" y1="510.2969" y2="510.2969"/><text fill="#000000" font-family="sans-serif" font-size="14" lengthAdjust="spacing" textLength="118.3027" x="17" y="501.9951">LlegadoADestino</text></g><ellipse cx="76" cy="622" fill="none" rx="11" ry="11" style="stroke:#222222;stroke-width:1.0;"/><ellipse cx="76" cy="622" fill="#222222" rx="6" ry="6" style="stroke:#222222;stroke-width:1.0;"/><!--link *start* to Esperando--><g id="link_*start*_Esperando"><path d="M76,26 C76,42.63 76,72.66 76,96.87 " fill="none" id="*start*-to-Esperando" style="stroke:#181818;stroke-width:1.0;"/><polygon fill="#181818" points="76,102.87,80,93.87,76,97.87,72,93.87,76,102.87" style="stroke:#181818;stroke-width:1.0;"/><text fill="#000000" font-family="sans-serif" font-size="13" lengthAdjust="spacing" textLength="112.7598" x="77" y="69.0669">Llega a la parada</text></g><!--link Esperando to Abordando--><g id="link_Esperando_Abordando"><path d="M76,153.1 C76,175.24 76,201.86 76,223.97 " fill="none" id="Esperando-to-Abordando" style="stroke:#181818;stroke-width:1.0;"/><polygon fill="#181818" points="76,229.97,80,220.97,76,224.97,72,220.97,76,229.97" style="stroke:#181818;stroke-width:1.0;"/><text fill="#000000" font-family="sans-serif" font-size="13" lengthAdjust="spacing" textLength="91.2666" x="77" y="196.0669">Vehículo llega</text></g><!--link Abordando to EnTransito--><g id="link_Abordando_EnTransito"><path d="M76,280.1 C76,302.24 76,328.86 76,350.97 " fill="none" id="Abordando-to-EnTransito" style="stroke:#181818;stroke-width:1.0;"/><polygon fill="#181818" points="76,356.97,80,347.97,76,351.97,72,347.97,76,356.97" style="stroke:#181818;stroke-width:1.0;"/><text fill="#000000" font-family="sans-serif" font-size="13" lengthAdjust="spacing" textLength="107.0786" x="77" y="323.0669">Sube al vehículo</text></g><!--link EnTransito to LlegadoADestino--><g id="link_EnTransito_LlegadoADestino"><path d="M76,407.1 C76,429.24 76,455.86 76,477.97 " fill="none" id="EnTransito-to-LlegadoADestino" style="stroke:#181818;stroke-width:1.0;"/><polygon fill="#181818" points="76,483.97,80,474.97,76,478.97,72,474.97,76,483.97" style="stroke:#181818;stroke-width:1.0;"/><text fill="#000000" font-family="sans-serif" font-size="13" lengthAdjust="spacing" textLength="186.8623" x="77" y="450.0669">Baja en la parada de destino</text></g><!--link LlegadoADestino to *end*--><g id="link_LlegadoADestino_*end*"><path d="M76,534.09 C76,558.06 76,587.7 76,604.94 " fill="none" id="LlegadoADestino-to-*end*" style="stroke:#181818;stroke-width:1.0;"/><polygon fill="#181818" points="76,610.94,80,601.94,76,605.94,72,601.94,76,610.94" style="stroke:#181818;stroke-width:1.0;"/><text fill="#000000" font-family="sans-serif" font-size="13" lengthAdjust="spacing" textLength="104.5205" x="77" y="577.0669">Termina el viaje</text></g><!--SRC=[NOyn3i8m34Ltd-BFIBr01wGYsDYeMAeEBh4WLKYgfELMd8AB4KUW8YHl_xrlkzlqgAej3ccIoDu4r3WwkJ8OZZ5nPCD4QwnmCuHeFl1PRg_dPN41JZLQirBhswmbEojwMWO1Epo-2lt4IfV59ZHxIRFrgknuP8XVJu6HF2Kc-kUreyiFrMWbtgtFQjvcUPGt]--></g></svg>