<svg xmlns="http://www.w3.org/2000/svg" xmlns:xlink="http://www.w3.org/1999/xlink" contentStyleType="text/css" height="524px" preserveAspectRatio="none" style="width:667px;height:524px;background:#FFFFFF;" version="1.1" viewBox="0 0 667 524" width="667px" zoomAndPan="magnify"><defs/><g><ellipse cx="380.34" cy="16" fill="#222222" rx="10" ry="10" style="stroke:#222222;stroke-width:1.0;"/><g id="EnMantenimiento"><rect fill="#F1F1F1" height="50" rx="12.5" ry="12.5" style="stroke:#181818;stroke-width:0.5;" width="143.1836" x="308.84" y="87"/><line style="stroke:#181818;stroke-width:0.5;" x1="308.84" x2="452.0236" y1="113.2969" y2="113.2969"/><text fill="#000000" font-family="sans-serif" font-size="14" lengthAdjust="spacing" textLength="123.1836" x="318.84" y="104.9951">EnMantenimiento</text></g><g id="Disponible"><rect fill="#F1F1F1" height="50" rx="12.5" ry="12.5" style="stroke:#181818;stroke-width:0.5;" width="93.5684" x="202.34" y="214"/><line style="stroke:#181818;stroke-width:0.5;" x1="202.34" x2="295.9084" y1="240.2969" y2="240.2969"/><text fill="#000000" font-family="sans-serif" font-size="14" lengthAdjust="spacing" textLength="73.5684" x="212.34" y="231.9951">Disponible</text></g><g id="EnRuta"><rect fill="#F1F1F1" height="50" rx="12.5" ry="12.5" style="stroke:#181818;stroke-width:0.5;" width="70.3877" x="162.34" y="341"/><line style="stroke:#181818;stroke-width:0.5;" x1="162.34" x2="232.7277" y1="367.2969" y2="367.2969"/><text fill="#000000" font-family="sans-serif" font-size="14" lengthAdjust="spacing" textLength="50.3877" x="172.34" y="358.9951">EnRuta</text></g><g id="FueraDeServicio"><rect fill="#F1F1F1" height="50" rx="12.5" ry="12.5" style="stroke:#181818;stroke-width:0.5;" width="134.8506" x="308.84" y="468"/><line style="stroke:#181818;stroke-width:0.5;" x1="308.84" x2="443.6906" y1="494.2969" y2="494.2969"/><text fill="#000000" font-family="sans-serif" font-size="14" lengthAdjust="spacing" textLength="114.8506" x="318.84" y="485.9951">FueraDeServicio</text></g><!--link *start* to EnMantenimiento--><g id="link_*start*_EnMantenimiento"><path d="M380.34,26.01 C380.34,39.89 380.34,60.97 380.34,80.84 " fill="none" id="*start*-to-EnMantenimiento" style="stroke:#181818;stroke-width:1.0;"/><polygon fill="#181818" points="380.34,86.84,384.34,77.84,380.34,81.84,376.34,77.84,380.34,86.84" style="stroke:#181818;stroke-width:1.0;"/></g><!--link EnMantenimiento to Disponible--><g id="link_EnMantenimiento_Disponible"><path d="M355.08,137.1 C331.88,159.24 302.0308,187.7178 278.8608,209.8278 " fill="none" id="EnMantenimiento-to-Disponible" style="stroke:#181818;stroke-width:1.0;"/><polygon fill="#181818" points="274.52,213.97,283.7926,210.6506,278.1373,210.5182,278.2697,204.8629,274.52,213.97" style="stroke:#181818;stroke-width:1.0;"/><text fill="#000000" font-family="sans-serif" font-size="13" lengthAdjust="spacing" textLength="176.0967" x="323.34" y="180.0669">Reparaciones completadas</text></g><!--link Disponible to EnRuta--><g id="link_Disponible_EnRuta"><path d="M202.01,245.53 C146.62,253.08 59.96,268.67 40.34,294 C6,338.35 100.2161,355.1628 156.2961,361.3428 " fill="none" id="Disponible-to-EnRuta" style="stroke:#181818;stroke-width:1.0;"/><polygon fill="#181818" points="162.26,362,153.7523,357.0382,157.2901,361.4523,152.876,364.9901,162.26,362" style="stroke:#181818;stroke-width:1.0;"/><text fill="#000000" font-family="sans-serif" font-size="13" lengthAdjust="spacing" textLength="134.6465" x="41.34" y="307.0669">Se asigna a una ruta</text></g><!--link EnRuta to Disponible--><g id="link_EnRuta_Disponible"><path d="M202.01,340.76 C205.15,326.76 209.9,309.01 216.34,294 C220.71,283.8 223.5538,278.3052 229.2938,269.2652 " fill="none" id="EnRuta-to-Disponible" style="stroke:#181818;stroke-width:1.0;"/><polygon fill="#181818" points="232.51,264.2,224.3089,269.6537,229.8299,268.421,231.0625,273.9419,232.51,264.2" style="stroke:#181818;stroke-width:1.0;"/><text fill="#000000" font-family="sans-serif" font-size="13" lengthAdjust="spacing" textLength="132.5898" x="217.34" y="307.0669">Termina el recorrido</text></g><!--link Disponible to FueraDeServicio--><g id="link_Disponible_FueraDeServicio"><path d="M296.56,253 C317.63,261.27 340.73,274.25 354.34,294 C390.93,347.12 386.6879,421.9846 381.2579,461.9446 " fill="none" id="Disponible-to-FueraDeServicio" style="stroke:#181818;stroke-width:1.0;"/><polygon fill="#181818" points="380.45,467.89,385.6254,459.5106,381.1232,462.9355,377.6983,458.4334,380.45,467.89" style="stroke:#181818;stroke-width:1.0;"/><text fill="#000000" font-family="sans-serif" font-size="13" lengthAdjust="spacing" textLength="110.1064" x="384.34" y="370.5669">Incidencia crítica</text></g><!--link EnRuta to FueraDeServicio--><g id="link_EnRuta_FueraDeServicio"><path d="M189.13,391.31 C185.72,406.2 184.52,424.85 194.34,438 C208.34,456.75 256.9191,470.1307 302.6591,479.3807 " fill="none" id="EnRuta-to-FueraDeServicio" style="stroke:#181818;stroke-width:1.0;"/><polygon fill="#181818" points="308.54,480.57,300.5114,474.8654,303.6392,479.5789,298.9257,482.7067,308.54,480.57" style="stroke:#181818;stroke-width:1.0;"/><text fill="#000000" font-family="sans-serif" font-size="13" lengthAdjust="spacing" textLength="154.502" x="195.34" y="434.0669">Falla durante operación</text></g><!--link FueraDeServicio to EnMantenimiento--><g id="link_FueraDeServicio_EnMantenimiento"><path d="M424.24,467.88 C452.77,450.69 486.59,424.67 503.34,391 C660.13,75.77 521.49,186.83 508.34,167 C495.41,147.51 479.5331,137.0961 457.8031,129.1261 " fill="none" id="FueraDeServicio-to-EnMantenimiento" style="stroke:#181818;stroke-width:1.0;"/><polygon fill="#181818" points="452.17,127.06,459.2422,133.9145,456.8642,128.7817,461.997,126.4037,452.17,127.06" style="stroke:#181818;stroke-width:1.0;"/><text fill="#000000" font-family="sans-serif" font-size="13" lengthAdjust="spacing" textLength="101.8672" x="547.34" y="307.0669">Ingreso al taller</text></g><!--SRC=[RL0x3i8m3Drp2iz8lG034rHYO04sn63I9sGfTIedvLPC7A4N8mK6Q5ayFB-Fdq-BCrNLYZQwOyrGQGMQetCJu4LQI-gYoYM0bhH7nyPUeYAHZsqNaBdXvBvOR-Tzdxa83Y1ESbKcfhvCAx3xR6VkHrWhXOH01X_Df8bJvxg7yHe7s4tA7KMrLIyDoc3oDjop-9-4kQ3c49YQtiQk53kCZOQ7kYdrpuzUULT3YiI1Sd62FG40]--></g></svg>