<svg xmlns="http://www.w3.org/2000/svg" xmlns:xlink="http://www.w3.org/1999/xlink" contentStyleType="text/css" height="562px" preserveAspectRatio="none" style="width:916px;height:562px;background:#FFFFFF;" version="1.1" viewBox="0 0 916 562" width="916px" zoomAndPan="magnify"><defs/><g><!--class CentroControl--><g id="elem_CentroControl"><rect codeLine="1" fill="#F1F1F1" height="48" id="CentroControl" rx="2.5" ry="2.5" style="stroke:#181818;stroke-width:0.5;" width="129.9863" x="219" y="7"/><ellipse cx="234" cy="23" fill="#ADD1B2" rx="11" ry="11" style="stroke:#181818;stroke-width:1.0;"/><path d="M236.9688,28.6406 Q236.3906,28.9375 235.75,29.0781 Q235.1094,29.2344 234.4063,29.2344 Q231.9063,29.2344 230.5781,27.5938 Q229.2656,25.9375 229.2656,22.8125 Q229.2656,19.6875 230.5781,18.0313 Q231.9063,16.375 234.4063,16.375 Q235.1094,16.375 235.75,16.5313 Q236.4063,16.6875 236.9688,16.9844 L236.9688,19.7031 Q236.3438,19.125 235.75,18.8594 Q235.1563,18.5781 234.5313,18.5781 Q233.1875,18.5781 232.5,19.6563 Q231.8125,20.7188 231.8125,22.8125 Q231.8125,24.9063 232.5,25.9844 Q233.1875,27.0469 234.5313,27.0469 Q235.1563,27.0469 235.75,26.7813 Q236.3438,26.5 236.9688,25.9219 L236.9688,28.6406 Z " fill="#000000"/><text fill="#000000" font-family="sans-serif" font-size="14" lengthAdjust="spacing" textLength="97.9863" x="248" y="27.8467">CentroControl</text><line style="stroke:#181818;stroke-width:0.5;" x1="220" x2="347.9863" y1="39" y2="39"/><line style="stroke:#181818;stroke-width:0.5;" x1="220" x2="347.9863" y1="47" y2="47"/></g><!--class Tarifa--><g id="elem_Tarifa"><rect codeLine="2" fill="#F1F1F1" height="48" id="Tarifa" rx="2.5" ry="2.5" style="stroke:#181818;stroke-width:0.5;" width="72.2842" x="113" y="257"/><ellipse cx="128" cy="273" fill="#ADD1B2" rx="11" ry="11" style="stroke:#181818;stroke-width:1.0;"/><path d="M130.9688,278.6406 Q130.3906,278.9375 129.75,279.0781 Q129.1094,279.2344 128.4063,279.2344 Q125.9063,279.2344 124.5781,277.5938 Q123.2656,275.9375 123.2656,272.8125 Q123.2656,269.6875 124.5781,268.0313 Q125.9063,266.375 128.4063,266.375 Q129.1094,266.375 129.75,266.5313 Q130.4063,266.6875 130.9688,266.9844 L130.9688,269.7031 Q130.3438,269.125 129.75,268.8594 Q129.1563,268.5781 128.5313,268.5781 Q127.1875,268.5781 126.5,269.6563 Q125.8125,270.7188 125.8125,272.8125 Q125.8125,274.9063 126.5,275.9844 Q127.1875,277.0469 128.5313,277.0469 Q129.1563,277.0469 129.75,276.7813 Q130.3438,276.5 130.9688,275.9219 L130.9688,278.6406 Z " fill="#000000"/><text fill="#000000" font-family="sans-serif" font-size="14" lengthAdjust="spacing" textLength="40.2842" x="142" y="277.8467">Tarifa</text><line style="stroke:#181818;stroke-width:0.5;" x1="114" x2="184.2842" y1="289" y2="289"/><line style="stroke:#181818;stroke-width:0.5;" x1="114" x2="184.2842" y1="297" y2="297"/></g><!--class Incidencia--><g id="elem_Incidencia"><rect codeLine="3" fill="#F1F1F1" height="48" id="Incidencia" rx="2.5" ry="2.5" style="stroke:#181818;stroke-width:0.5;" width="103.1279" x="186.5" y="507"/><ellipse cx="201.5" cy="523" fill="#ADD1B2" rx="11" ry="11" style="stroke:#181818;stroke-width:1.0;"/><path d="M204.4688,528.6406 Q203.8906,528.9375 203.25,529.0781 Q202.6094,529.2344 201.9063,529.2344 Q199.4063,529.2344 198.0781,527.5938 Q196.7656,525.9375 196.7656,522.8125 Q196.7656,519.6875 198.0781,518.0313 Q199.4063,516.375 201.9063,516.375 Q202.6094,516.375 203.25,516.5313 Q203.9063,516.6875 204.4688,516.9844 L204.4688,519.7031 Q203.8438,519.125 203.25,518.8594 Q202.6563,518.5781 202.0313,518.5781 Q200.6875,518.5781 200,519.6563 Q199.3125,520.7188 199.3125,522.8125 Q199.3125,524.9063 200,525.9844 Q200.6875,527.0469 202.0313,527.0469 Q202.6563,527.0469 203.25,526.7813 Q203.8438,526.5 204.4688,525.9219 L204.4688,528.6406 Z " fill="#000000"/><text fill="#000000" font-family="sans-serif" font-size="14" lengthAdjust="spacing" textLength="71.1279" x="215.5" y="527.8467">Incidencia</text><line style="stroke:#181818;stroke-width:0.5;" x1="187.5" x2="288.6279" y1="539" y2="539"/><line style="stroke:#181818;stroke-width:0.5;" x1="187.5" x2="288.6279" y1="547" y2="547"/></g><!--class Ruta--><g id="elem_Ruta"><rect codeLine="4" fill="#F1F1F1" height="48" id="Ruta" rx="2.5" ry="2.5" style="stroke:#181818;stroke-width:0.5;" width="64.6689" x="385.5" y="132"/><ellipse cx="400.5" cy="148" fill="#ADD1B2" rx="11" ry="11" style="stroke:#181818;stroke-width:1.0;"/><path d="M403.4688,153.6406 Q402.8906,153.9375 402.25,154.0781 Q401.6094,154.2344 400.9063,154.2344 Q398.4063,154.2344 397.0781,152.5938 Q395.7656,150.9375 395.7656,147.8125 Q395.7656,144.6875 397.0781,143.0313 Q398.4063,141.375 400.9063,141.375 Q401.6094,141.375 402.25,141.5313 Q402.9063,141.6875 403.4688,141.9844 L403.4688,144.7031 Q402.8438,144.125 402.25,143.8594 Q401.6563,143.5781 401.0313,143.5781 Q399.6875,143.5781 399,144.6563 Q398.3125,145.7188 398.3125,147.8125 Q398.3125,149.9063 399,150.9844 Q399.6875,152.0469 401.0313,152.0469 Q401.6563,152.0469 402.25,151.7813 Q402.8438,151.5 403.4688,150.9219 L403.4688,153.6406 Z " fill="#000000"/><text fill="#000000" font-family="sans-serif" font-size="14" lengthAdjust="spacing" textLength="32.6689" x="414.5" y="152.8467">Ruta</text><line style="stroke:#181818;stroke-width:0.5;" x1="386.5" x2="449.1689" y1="164" y2="164"/><line style="stroke:#181818;stroke-width:0.5;" x1="386.5" x2="449.1689" y1="172" y2="172"/></g><!--class Parada--><g id="elem_Parada"><rect codeLine="5" fill="#F1F1F1" height="48" id="Parada" rx="2.5" ry="2.5" style="stroke:#181818;stroke-width:0.5;" width="80.8223" x="345.5" y="382"/><ellipse cx="360.5" cy="398" fill="#ADD1B2" rx="11" ry="11" style="stroke:#181818;stroke-width:1.0;"/><path d="M363.4688,403.6406 Q362.8906,403.9375 362.25,404.0781 Q361.6094,404.2344 360.9063,404.2344 Q358.4063,404.2344 357.0781,402.5938 Q355.7656,400.9375 355.7656,397.8125 Q355.7656,394.6875 357.0781,393.0313 Q358.4063,391.375 360.9063,391.375 Q361.6094,391.375 362.25,391.5313 Q362.9063,391.6875 363.4688,391.9844 L363.4688,394.7031 Q362.8438,394.125 362.25,393.8594 Q361.6563,393.5781 361.0313,393.5781 Q359.6875,393.5781 359,394.6563 Q358.3125,395.7188 358.3125,397.8125 Q358.3125,399.9063 359,400.9844 Q359.6875,402.0469 361.0313,402.0469 Q361.6563,402.0469 362.25,401.7813 Q362.8438,401.5 363.4688,400.9219 L363.4688,403.6406 Z " fill="#000000"/><text fill="#000000" font-family="sans-serif" font-size="14" lengthAdjust="spacing" textLength="48.8223" x="374.5" y="402.8467">Parada</text><line style="stroke:#181818;stroke-width:0.5;" x1="346.5" x2="425.3223" y1="414" y2="414"/><line style="stroke:#181818;stroke-width:0.5;" x1="346.5" x2="425.3223" y1="422" y2="422"/></g><!--class Vehiculo--><g id="elem_Vehiculo"><rect codeLine="6" fill="#F1F1F1" height="48" id="Vehiculo" rx="2.5" ry="2.5" style="stroke:#181818;stroke-width:0.5;" width="91.9785" x="573" y="257"/><ellipse cx="588" cy="273" fill="#ADD1B2" rx="11" ry="11" style="stroke:#181818;stroke-width:1.0;"/><path d="M590.9688,278.6406 Q590.3906,278.9375 589.75,279.0781 Q589.1094,279.2344 588.4063,279.2344 Q585.9063,279.2344 584.5781,277.5938 Q583.2656,275.9375 583.2656,272.8125 Q583.2656,269.6875 584.5781,268.0313 Q585.9063,266.375 588.4063,266.375 Q589.1094,266.375 589.75,266.5313 Q590.4063,266.6875 590.9688,266.9844 L590.9688,269.7031 Q590.3438,269.125 589.75,268.8594 Q589.1563,268.5781 588.5313,268.5781 Q587.1875,268.5781 586.5,269.6563 Q585.8125,270.7188 585.8125,272.8125 Q585.8125,274.9063 586.5,275.9844 Q587.1875,277.0469 588.5313,277.0469 Q589.1563,277.0469 589.75,276.7813 Q590.3438,276.5 590.9688,275.9219 L590.9688,278.6406 Z " fill="#000000"/><text fill="#000000" font-family="sans-serif" font-size="14" lengthAdjust="spacing" textLength="59.9785" x="602" y="277.8467">Vehiculo</text><line style="stroke:#181818;stroke-width:0.5;" x1="574" x2="663.9785" y1="289" y2="289"/><line style="stroke:#181818;stroke-width:0.5;" x1="574" x2="663.9785" y1="297" y2="297"/></g><!--class Bus--><g id="elem_Bus"><rect codeLine="7" fill="#F1F1F1" height="48" id="Bus" rx="2.5" ry="2.5" style="stroke:#181818;stroke-width:0.5;" width="57.7715" x="565" y="507"/><ellipse cx="580" cy="523" fill="#ADD1B2" rx="11" ry="11" style="stroke:#181818;stroke-width:1.0;"/><path d="M582.9688,528.6406 Q582.3906,528.9375 581.75,529.0781 Q581.1094,529.2344 580.4063,529.2344 Q577.9063,529.2344 576.5781,527.5938 Q575.2656,525.9375 575.2656,522.8125 Q575.2656,519.6875 576.5781,518.0313 Q577.9063,516.375 580.4063,516.375 Q581.1094,516.375 581.75,516.5313 Q582.4063,516.6875 582.9688,516.9844 L582.9688,519.7031 Q582.3438,519.125 581.75,518.8594 Q581.1563,518.5781 580.5313,518.5781 Q579.1875,518.5781 578.5,519.6563 Q577.8125,520.7188 577.8125,522.8125 Q577.8125,524.9063 578.5,525.9844 Q579.1875,527.0469 580.5313,527.0469 Q581.1563,527.0469 581.75,526.7813 Q582.3438,526.5 582.9688,525.9219 L582.9688,528.6406 Z " fill="#000000"/><text fill="#000000" font-family="sans-serif" font-size="14" lengthAdjust="spacing" textLength="25.7715" x="594" y="527.8467">Bus</text><line style="stroke:#181818;stroke-width:0.5;" x1="566" x2="621.7715" y1="539" y2="539"/><line style="stroke:#181818;stroke-width:0.5;" x1="566" x2="621.7715" y1="547" y2="547"/></g><!--class Tren--><g id="elem_Tren"><rect codeLine="8" fill="#F1F1F1" height="48" id="Tren" rx="2.5" ry="2.5" style="stroke:#181818;stroke-width:0.5;" width="63.7939" x="658" y="507"/><ellipse cx="673" cy="523" fill="#ADD1B2" rx="11" ry="11" style="stroke:#181818;stroke-width:1.0;"/><path d="M675.9688,528.6406 Q675.3906,528.9375 674.75,529.0781 Q674.1094,529.2344 673.4063,529.2344 Q670.9063,529.2344 669.5781,527.5938 Q668.2656,525.9375 668.2656,522.8125 Q668.2656,519.6875 669.5781,518.0313 Q670.9063,516.375 673.4063,516.375 Q674.1094,516.375 674.75,516.5313 Q675.4063,516.6875 675.9688,516.9844 L675.9688,519.7031 Q675.3438,519.125 674.75,518.8594 Q674.1563,518.5781 673.5313,518.5781 Q672.1875,518.5781 671.5,519.6563 Q670.8125,520.7188 670.8125,522.8125 Q670.8125,524.9063 671.5,525.9844 Q672.1875,527.0469 673.5313,527.0469 Q674.1563,527.0469 674.75,526.7813 Q675.3438,526.5 675.9688,525.9219 L675.9688,528.6406 Z " fill="#000000"/><text fill="#000000" font-family="sans-serif" font-size="14" lengthAdjust="spacing" textLength="31.7939" x="687" y="527.8467">Tren</text><line style="stroke:#181818;stroke-width:0.5;" x1="659" x2="720.7939" y1="539" y2="539"/><line style="stroke:#181818;stroke-width:0.5;" x1="659" x2="720.7939" y1="547" y2="547"/></g><!--class Metro--><g id="elem_Metro"><rect codeLine="9" fill="#F1F1F1" height="48" id="Metro" rx="2.5" ry="2.5" style="stroke:#181818;stroke-width:0.5;" width="72.5029" x="757.5" y="507"/><ellipse cx="772.5" cy="523" fill="#ADD1B2" rx="11" ry="11" style="stroke:#181818;stroke-width:1.0;"/><path d="M775.4688,528.6406 Q774.8906,528.9375 774.25,529.0781 Q773.6094,529.2344 772.9063,529.2344 Q770.4063,529.2344 769.0781,527.5938 Q767.7656,525.9375 767.7656,522.8125 Q767.7656,519.6875 769.0781,518.0313 Q770.4063,516.375 772.9063,516.375 Q773.6094,516.375 774.25,516.5313 Q774.9063,516.6875 775.4688,516.9844 L775.4688,519.7031 Q774.8438,519.125 774.25,518.8594 Q773.6563,518.5781 773.0313,518.5781 Q771.6875,518.5781 771,519.6563 Q770.3125,520.7188 770.3125,522.8125 Q770.3125,524.9063 771,525.9844 Q771.6875,527.0469 773.0313,527.0469 Q773.6563,527.0469 774.25,526.7813 Q774.8438,526.5 775.4688,525.9219 L775.4688,528.6406 Z " fill="#000000"/><text fill="#000000" font-family="sans-serif" font-size="14" lengthAdjust="spacing" textLength="40.5029" x="786.5" y="527.8467">Metro</text><line style="stroke:#181818;stroke-width:0.5;" x1="758.5" x2="829.0029" y1="539" y2="539"/><line style="stroke:#181818;stroke-width:0.5;" x1="758.5" x2="829.0029" y1="547" y2="547"/></g><!--class Horario--><g id="elem_Horario"><rect codeLine="10" fill="#F1F1F1" height="48" id="Horario" rx="2.5" ry="2.5" style="stroke:#181818;stroke-width:0.5;" width="83.6387" x="826" y="382"/><ellipse cx="841" cy="398" fill="#ADD1B2" rx="11" ry="11" style="stroke:#181818;stroke-width:1.0;"/><path d="M843.9688,403.6406 Q843.3906,403.9375 842.75,404.0781 Q842.1094,404.2344 841.4063,404.2344 Q838.9063,404.2344 837.5781,402.5938 Q836.2656,400.9375 836.2656,397.8125 Q836.2656,394.6875 837.5781,393.0313 Q838.9063,391.375 841.4063,391.375 Q842.1094,391.375 842.75,391.5313 Q843.4063,391.6875 843.9688,391.9844 L843.9688,394.7031 Q843.3438,394.125 842.75,393.8594 Q842.1563,393.5781 841.5313,393.5781 Q840.1875,393.5781 839.5,394.6563 Q838.8125,395.7188 838.8125,397.8125 Q838.8125,399.9063 839.5,400.9844 Q840.1875,402.0469 841.5313,402.0469 Q842.1563,402.0469 842.75,401.7813 Q843.3438,401.5 843.9688,400.9219 L843.9688,403.6406 Z " fill="#000000"/><text fill="#000000" font-family="sans-serif" font-size="14" lengthAdjust="spacing" textLength="51.6387" x="855" y="402.8467">Horario</text><line style="stroke:#181818;stroke-width:0.5;" x1="827" x2="908.6387" y1="414" y2="414"/><line style="stroke:#181818;stroke-width:0.5;" x1="827" x2="908.6387" y1="422" y2="422"/></g><!--class Conductor--><g id="elem_Conductor"><rect codeLine="11" fill="#F1F1F1" height="48" id="Conductor" rx="2.5" ry="2.5" style="stroke:#181818;stroke-width:0.5;" width="104.4814" x="462" y="382"/><ellipse cx="477" cy="398" fill="#ADD1B2" rx="11" ry="11" style="stroke:#181818;stroke-width:1.0;"/><path d="M479.9688,403.6406 Q479.3906,403.9375 478.75,404.0781 Q478.1094,404.2344 477.4063,404.2344 Q474.9063,404.2344 473.5781,402.5938 Q472.2656,400.9375 472.2656,397.8125 Q472.2656,394.6875 473.5781,393.0313 Q474.9063,391.375 477.4063,391.375 Q478.1094,391.375 478.75,391.5313 Q479.4063,391.6875 479.9688,391.9844 L479.9688,394.7031 Q479.3438,394.125 478.75,393.8594 Q478.1563,393.5781 477.5313,393.5781 Q476.1875,393.5781 475.5,394.6563 Q474.8125,395.7188 474.8125,397.8125 Q474.8125,399.9063 475.5,400.9844 Q476.1875,402.0469 477.5313,402.0469 Q478.1563,402.0469 478.75,401.7813 Q479.3438,401.5 479.9688,400.9219 L479.9688,403.6406 Z " fill="#000000"/><text fill="#000000" font-family="sans-serif" font-size="14" lengthAdjust="spacing" textLength="72.4814" x="491" y="402.8467">Conductor</text><line style="stroke:#181818;stroke-width:0.5;" x1="463" x2="565.4814" y1="414" y2="414"/><line style="stroke:#181818;stroke-width:0.5;" x1="463" x2="565.4814" y1="422" y2="422"/></g><!--class Pasajero--><g id="elem_Pasajero"><rect codeLine="12" fill="#F1F1F1" height="48" id="Pasajero" rx="2.5" ry="2.5" style="stroke:#181818;stroke-width:0.5;" width="91.7188" x="230" y="132"/><ellipse cx="245" cy="148" fill="#ADD1B2" rx="11" ry="11" style="stroke:#181818;stroke-width:1.0;"/><path d="M247.9688,153.6406 Q247.3906,153.9375 246.75,154.0781 Q246.1094,154.2344 245.4063,154.2344 Q242.9063,154.2344 241.5781,152.5938 Q240.2656,150.9375 240.2656,147.8125 Q240.2656,144.6875 241.5781,143.0313 Q242.9063,141.375 245.4063,141.375 Q246.1094,141.375 246.75,141.5313 Q247.4063,141.6875 247.9688,141.9844 L247.9688,144.7031 Q247.3438,144.125 246.75,143.8594 Q246.1563,143.5781 245.5313,143.5781 Q244.1875,143.5781 243.5,144.6563 Q242.8125,145.7188 242.8125,147.8125 Q242.8125,149.9063 243.5,150.9844 Q244.1875,152.0469 245.5313,152.0469 Q246.1563,152.0469 246.75,151.7813 Q247.3438,151.5 247.9688,150.9219 L247.9688,153.6406 Z " fill="#000000"/><text fill="#000000" font-family="sans-serif" font-size="14" lengthAdjust="spacing" textLength="59.7188" x="259" y="152.8467">Pasajero</text><line style="stroke:#181818;stroke-width:0.5;" x1="231" x2="320.7188" y1="164" y2="164"/><line style="stroke:#181818;stroke-width:0.5;" x1="231" x2="320.7188" y1="172" y2="172"/></g><!--link CentroControl to Tarifa--><g id="link_CentroControl_Tarifa"><path codeLine="14" d="M227.38,55.16 C195.47,71.5 158.41,96.8 140,132 C119.12,171.92 127.3827,214.975 136.9927,245.465 " fill="none" id="CentroControl-to-Tarifa" style="stroke:#181818;stroke-width:1.0;"/><polygon fill="none" points="140.6,256.91,142.6113,249.9851,136.9927,245.465,134.9814,252.3899,140.6,256.91" style="stroke:#181818;stroke-width:1.0;"/><text fill="#000000" font-family="sans-serif" font-size="13" lengthAdjust="spacing" textLength="70.4526" x="141" y="160.5669">Administra</text></g><!--link CentroControl to Incidencia--><g id="link_CentroControl_Incidencia"><path codeLine="15" d="M218.82,33.36 C136.65,38.94 6,62.38 6,155 C6,155 6,155 6,407 C6,488.03 105.9623,514.2021 174.3323,523.6221 " fill="none" id="CentroControl-to-Incidencia" style="stroke:#181818;stroke-width:1.0;"/><polygon fill="none" points="186.22,525.26,180.8221,520.4785,174.3323,523.6221,179.7302,528.4036,186.22,525.26" style="stroke:#181818;stroke-width:1.0;"/><text fill="#000000" font-family="sans-serif" font-size="13" lengthAdjust="spacing" textLength="70.4526" x="7" y="285.5669">Administra</text></g><!--link CentroControl to Horario--><g id="link_CentroControl_Horario"><path codeLine="16" d="M349.37,50.71 C377.78,59.73 411.1,71.52 440,85 C634.11,175.54 726.67,161.31 852,335 C861.77,348.55 865.7,367.09 867.22,381.69 " fill="none" id="CentroControl-Horario" style="stroke:#181818;stroke-width:1.0;"/><text fill="#000000" font-family="sans-serif" font-size="13" lengthAdjust="spacing" textLength="46.998" x="750" y="223.0669">Maneja</text></g><!--link CentroControl to Ruta--><g id="link_CentroControl_Ruta"><path codeLine="17" d="M309.2,55.14 C333.16,77.13 360.1503,101.8946 384.0703,123.8546 " fill="none" id="CentroControl-to-Ruta" style="stroke:#181818;stroke-width:1.0;"/><polygon fill="none" points="392.91,131.97,391.1953,124.9657,384.0703,123.8546,385.785,130.8589,392.91,131.97" style="stroke:#181818;stroke-width:1.0;"/><text fill="#000000" font-family="sans-serif" font-size="13" lengthAdjust="spacing" textLength="70.4526" x="361" y="98.0669">Administra</text></g><!--link Ruta to Parada--><g id="link_Ruta_Parada"><path codeLine="19" d="M414.99,180.33 C408.88,227.72 396.6062,322.8287 390.5162,370.0087 " fill="none" id="Ruta-to-Parada" style="stroke:#181818;stroke-width:1.0;"/><polygon fill="#181818" points="388.98,381.91,393.7152,376.4714,390.5162,370.0087,385.781,375.4473,388.98,381.91" style="stroke:#181818;stroke-width:1.0;"/><text fill="#000000" font-family="sans-serif" font-size="13" lengthAdjust="spacing" textLength="58.2144" x="406" y="285.5669">Contiene</text></g><!--link Ruta to Vehiculo--><g id="link_Ruta_Vehiculo"><path codeLine="20" d="M450.74,177.04 C486.45,198.89 533.285,227.5454 570.895,250.5654 " fill="none" id="Ruta-to-Vehiculo" style="stroke:#181818;stroke-width:1.0;"/><polygon fill="#181818" points="581.13,256.83,578.1007,250.2861,570.895,250.5654,573.9243,257.1094,581.13,256.83" style="stroke:#181818;stroke-width:1.0;"/><text fill="#000000" font-family="sans-serif" font-size="13" lengthAdjust="spacing" textLength="70.4526" x="532" y="223.0669">Administra</text></g><!--link Ruta to Tarifa--><g id="link_Ruta_Tarifa"><path codeLine="21" d="M385.28,171.96 C334.74,195.07 238,239.3 185.34,263.38 " fill="none" id="Ruta-Tarifa" style="stroke:#181818;stroke-width:1.0;"/><text fill="#000000" font-family="sans-serif" font-size="13" lengthAdjust="spacing" textLength="35.7881" x="301" y="223.0669">Tiene</text></g><!--link Vehiculo to Bus--><g id="link_Vehiculo_Bus"><path codeLine="23" d="M616.65,305.33 C611.87,352.72 602.8831,441.8205 598.1331,489.0005 " fill="none" id="Vehiculo-to-Bus" style="stroke:#181818;stroke-width:1.0;"/><polygon fill="none" points="596.33,506.91,604.1029,489.6016,592.1633,488.3995,596.33,506.91" style="stroke:#181818;stroke-width:1.0;"/></g><!--link Vehiculo to Tren--><g id="link_Vehiculo_Tren"><path codeLine="24" d="M627.75,305.08 C631.13,314.32 634.91,325.11 638,335 C657.15,396.38 671.3244,452.4554 680.2244,489.2154 " fill="none" id="Vehiculo-to-Tren" style="stroke:#181818;stroke-width:1.0;"/><polygon fill="none" points="684.46,506.71,686.0559,487.8036,674.3929,490.6273,684.46,506.71" style="stroke:#181818;stroke-width:1.0;"/></g><!--link Vehiculo to Metro--><g id="link_Vehiculo_Metro"><path codeLine="25" d="M640.81,305.12 C649.01,314.19 658.23,324.84 666,335 C711.4,394.34 748.5866,453.9966 770.9866,491.3166 " fill="none" id="Vehiculo-to-Metro" style="stroke:#181818;stroke-width:1.0;"/><polygon fill="none" points="780.25,506.75,776.1311,488.2288,765.8422,494.4044,780.25,506.75" style="stroke:#181818;stroke-width:1.0;"/></g><!--link Vehiculo to Horario--><g id="link_Vehiculo_Horario"><path codeLine="27" d="M665.17,292.54 C698.36,301.21 743.49,315.29 780,335 C803.53,347.7 818.1423,358.8527 834.9523,373.9127 " fill="none" id="Vehiculo-to-Horario" style="stroke:#181818;stroke-width:1.0;"/><polygon fill="#181818" points="843.89,381.92,842.0902,374.9371,834.9523,373.9127,836.752,380.8956,843.89,381.92" style="stroke:#181818;stroke-width:1.0;"/><text fill="#000000" font-family="sans-serif" font-size="13" lengthAdjust="spacing" textLength="36.353" x="807" y="348.0669">Sigue</text></g><!--link Vehiculo to Conductor--><g id="link_Vehiculo_Conductor"><path codeLine="28" d="M587.34,305.2 C576.68,313.87 565.18,324.23 556,335 C543.77,349.34 532.91,367.68 525.3,381.98 " fill="none" id="Vehiculo-Conductor" style="stroke:#181818;stroke-width:1.0;"/><text fill="#000000" font-family="sans-serif" font-size="13" lengthAdjust="spacing" textLength="35.7881" x="557" y="348.0669">Tiene</text></g><!--link Vehiculo to Parada--><g id="link_Vehiculo_Parada"><path codeLine="29" d="M572.96,297.6 C547.06,307.07 514.51,320.19 487,335 C461.83,348.55 435.34,367.1 415.8,381.69 " fill="none" id="Vehiculo-Parada" style="stroke:#181818;stroke-width:1.0;"/><text fill="#000000" font-family="sans-serif" font-size="13" lengthAdjust="spacing" textLength="47.1694" x="488" y="348.0669">Llega a</text></g><!--link Conductor to Incidencia--><g id="link_Conductor_Incidencia"><path codeLine="31" d="M462.09,430.14 C412.74,452.13 338.95,485.01 289.68,506.97 " fill="none" id="Conductor-Incidencia" style="stroke:#181818;stroke-width:1.0;"/><text fill="#000000" font-family="sans-serif" font-size="13" lengthAdjust="spacing" textLength="30.3862" x="394" y="473.0669">Crea</text></g><!--link Pasajero to Parada--><g id="link_Pasajero_Parada"><path codeLine="33" d="M286.35,180.33 C307.37,227.72 354.83,334.73 375.76,381.91 " fill="none" id="Pasajero-Parada" style="stroke:#181818;stroke-width:1.0;"/><text fill="#000000" font-family="sans-serif" font-size="13" lengthAdjust="spacing" textLength="47.1694" x="342" y="285.5669">Llega a</text></g><!--link Pasajero to Incidencia--><g id="link_Pasajero_Incidencia"><path codeLine="34" d="M273.65,180.05 C266.86,246.76 247.22,439.51 240.38,506.63 " fill="none" id="Pasajero-Incidencia" style="stroke:#181818;stroke-width:1.0;"/><text fill="#000000" font-family="sans-serif" font-size="13" lengthAdjust="spacing" textLength="30.3862" x="259" y="348.0669">Crea</text></g><!--link Pasajero to Tarifa--><g id="link_Pasajero_Tarifa"><path codeLine="36" d="M229.64,174.11 C211.62,182.63 191.99,194.49 178,210 C166.11,223.19 158.69,241.93 154.34,256.71 " fill="none" id="Pasajero-Tarifa" style="stroke:#181818;stroke-width:1.0;stroke-dasharray:7.0,7.0;"/><text fill="#000000" font-family="sans-serif" font-size="13" lengthAdjust="spacing" textLength="32.0239" x="179" y="223.0669">Paga</text></g><!--SRC=[VL7B2i8m4BptAt8MuWTu4BGN1GkYudr9rvfI4qYQcn_lDYPDMaelONTczZKH7LZBIbIzqQKUtguG7dk0aIy8oLa9MICz4RYvFePNC537v8blALodGtfqDhOpg49O8Oq9yKaRcXCpsg1sejTcR6sXHH8NamqPvphintRiK7-aahOtiA1AYwyhuoAaga1XkzHhk7dQfV0GvvjW0h53WKI5YOgMJ4i3dSvu-AfYL7FEltjlu0poJiwmlwKvkiakkil6OKuceyV1EJiUS-cm0KPt9ZtH4qzBWyJ7ZrgipicrskqskN651du0]--></g></svg>