<svg xmlns="http://www.w3.org/2000/svg" xmlns:xlink="http://www.w3.org/1999/xlink" contentStyleType="text/css" height="505px" preserveAspectRatio="none" style="width:1087px;height:505px;background:#FFFFFF;" version="1.1" viewBox="0 0 1087 505" width="1087px" zoomAndPan="magnify"><defs/><g><g id="elem_CentroControl1"><rect fill="#F1F1F1" height="44.5938" style="stroke:#181818;stroke-width:0.5;" width="211.2676" x="582" y="7"/><text fill="#000000" font-family="sans-serif" font-size="14" lengthAdjust="spacing" textLength="106.8936" x="634.187" y="21.9951">CentroControl1</text><line style="stroke:#181818;stroke-width:0.5;" x1="583" x2="792.2676" y1="27.2969" y2="27.2969"/><text fill="#000000" font-family="sans-serif" font-size="14" lengthAdjust="spacing" textLength="199.2676" x="588" y="44.292">nombre = "Centro Principal"</text></g><g id="elem_Ruta1"><rect fill="#F1F1F1" height="60.8906" style="stroke:#181818;stroke-width:0.5;" width="203.29" x="414" y="129"/><text fill="#000000" font-family="sans-serif" font-size="14" lengthAdjust="spacing" textLength="41.5762" x="494.8569" y="143.9951">Ruta1</text><line style="stroke:#181818;stroke-width:0.5;" x1="415" x2="616.29" y1="149.2969" y2="149.2969"/><text fill="#000000" font-family="sans-serif" font-size="14" lengthAdjust="spacing" textLength="149.8779" x="420" y="166.292">codigo = "RUTA-101"</text><text fill="#000000" font-family="sans-serif" font-size="14" lengthAdjust="spacing" textLength="191.29" x="420" y="182.5889">nombre = "Centro a Norte"</text></g><g id="elem_Parada1"><rect fill="#F1F1F1" height="60.8906" style="stroke:#181818;stroke-width:0.5;" width="233.1221" x="477" y="429"/><text fill="#000000" font-family="sans-serif" font-size="14" lengthAdjust="spacing" textLength="57.7295" x="564.6963" y="443.9951">Parada1</text><line style="stroke:#181818;stroke-width:0.5;" x1="478" x2="709.1221" y1="449.2969" y2="449.2969"/><text fill="#000000" font-family="sans-serif" font-size="14" lengthAdjust="spacing" textLength="202.501" x="483" y="466.292">nombre = "Estación Central"</text><text fill="#000000" font-family="sans-serif" font-size="14" lengthAdjust="spacing" textLength="221.1221" x="483" y="482.5889">ubicacion = "Av. Principal #10"</text></g><g id="elem_Parada2"><rect fill="#F1F1F1" height="60.8906" style="stroke:#181818;stroke-width:0.5;" width="224.5498" x="7" y="429"/><text fill="#000000" font-family="sans-serif" font-size="14" lengthAdjust="spacing" textLength="57.7295" x="90.4102" y="443.9951">Parada2</text><line style="stroke:#181818;stroke-width:0.5;" x1="8" x2="230.5498" y1="449.2969" y2="449.2969"/><text fill="#000000" font-family="sans-serif" font-size="14" lengthAdjust="spacing" textLength="190.4219" x="13" y="466.292">nombre = "Estación Norte"</text><text fill="#000000" font-family="sans-serif" font-size="14" lengthAdjust="spacing" textLength="212.5498" x="13" y="482.5889">ubicacion = "Calle Norte #45"</text></g><g id="elem_Bus1"><rect fill="#F1F1F1" height="77.1875" style="stroke:#181818;stroke-width:0.5;" width="173.7656" x="328.5" y="267"/><text fill="#000000" font-family="sans-serif" font-size="14" lengthAdjust="spacing" textLength="34.6787" x="398.0435" y="281.9951">Bus1</text><line style="stroke:#181818;stroke-width:0.5;" x1="329.5" x2="501.2656" y1="287.2969" y2="287.2969"/><text fill="#000000" font-family="sans-serif" font-size="14" lengthAdjust="spacing" textLength="160.6309" x="334.5" y="304.292">matricula = "ABC-123"</text><text fill="#000000" font-family="sans-serif" font-size="14" lengthAdjust="spacing" textLength="110.127" x="334.5" y="320.5889">capacidad = 50</text><text fill="#000000" font-family="sans-serif" font-size="14" lengthAdjust="spacing" textLength="161.7656" x="334.5" y="336.8857">tipo = "Bus Articulado"</text></g><g id="elem_Conductor1"><rect fill="#F1F1F1" height="60.8906" style="stroke:#181818;stroke-width:0.5;" width="173.5195" x="267.5" y="429"/><text fill="#000000" font-family="sans-serif" font-size="14" lengthAdjust="spacing" textLength="81.3887" x="313.5654" y="443.9951">Conductor1</text><line style="stroke:#181818;stroke-width:0.5;" x1="268.5" x2="440.0195" y1="449.2969" y2="449.2969"/><text fill="#000000" font-family="sans-serif" font-size="14" lengthAdjust="spacing" textLength="161.5195" x="273.5" y="466.292">nombre = "Juan Pérez"</text><text fill="#000000" font-family="sans-serif" font-size="14" lengthAdjust="spacing" textLength="146.002" x="273.5" y="482.5889">licencia = "12345-C"</text></g><g id="elem_Pasajero1"><rect fill="#F1F1F1" height="60.8906" style="stroke:#181818;stroke-width:0.5;" width="191.5459" x="793.5" y="129"/><text fill="#000000" font-family="sans-serif" font-size="14" lengthAdjust="spacing" textLength="68.626" x="854.96" y="143.9951">Pasajero1</text><line style="stroke:#181818;stroke-width:0.5;" x1="794.5" x2="984.0459" y1="149.2969" y2="149.2969"/><text fill="#000000" font-family="sans-serif" font-size="14" lengthAdjust="spacing" textLength="172.3887" x="799.5" y="166.292">nombre = "María López"</text><text fill="#000000" font-family="sans-serif" font-size="14" lengthAdjust="spacing" textLength="179.5459" x="799.5" y="182.5889">tarjeta = "TARJETA-6789"</text></g><g id="elem_Tarifa1"><rect fill="#F1F1F1" height="60.8906" style="stroke:#181818;stroke-width:0.5;" width="107.2109" x="666" y="275"/><text fill="#000000" font-family="sans-serif" font-size="14" lengthAdjust="spacing" textLength="49.1914" x="695.0098" y="289.9951">Tarifa1</text><line style="stroke:#181818;stroke-width:0.5;" x1="667" x2="772.2109" y1="295.2969" y2="295.2969"/><text fill="#000000" font-family="sans-serif" font-size="14" lengthAdjust="spacing" textLength="95.2109" x="672" y="312.292">precio = 1.50</text><text fill="#000000" font-family="sans-serif" font-size="14" lengthAdjust="spacing" textLength="86.1123" x="672" y="328.5889">tipo = "Bus"</text></g><g id="elem_Horario1"><rect fill="#F1F1F1" height="77.1875" style="stroke:#181818;stroke-width:0.5;" width="197.917" x="842.5" y="421"/><text fill="#000000" font-family="sans-serif" font-size="14" lengthAdjust="spacing" textLength="60.5459" x="911.1855" y="435.9951">Horario1</text><line style="stroke:#181818;stroke-width:0.5;" x1="843.5" x2="1039.417" y1="441.2969" y2="441.2969"/><text fill="#000000" font-family="sans-serif" font-size="14" lengthAdjust="spacing" textLength="142.6729" x="848.5" y="458.292">horaInicio = "08:00"</text><text fill="#000000" font-family="sans-serif" font-size="14" lengthAdjust="spacing" textLength="126.4443" x="848.5" y="474.5889">horaFin = "20:00"</text><text fill="#000000" font-family="sans-serif" font-size="14" lengthAdjust="spacing" textLength="185.917" x="848.5" y="490.8857">frecuencia = "15 minutos"</text></g><!--link CentroControl1 to Tarifa1--><g id="link_CentroControl1_Tarifa1"><path codeLine="49" d="M689.88,52.18 C693.27,82.87 699.71,140.74 705.5,190 C708.89,218.84 712.93,251.74 715.8,274.85 " fill="none" id="CentroControl1-Tarifa1" style="stroke:#181818;stroke-width:1.0;"/><text fill="#000000" font-family="sans-serif" font-size="13" lengthAdjust="spacing" textLength="69.5259" x="706.5" y="164.0669">administra</text></g><!--link CentroControl1 to Horario1--><g id="link_CentroControl1_Horario1"><path codeLine="50" d="M793.26,49.58 C874.9,66.71 978.09,94.46 1003.5,129 C1068.7,217.61 1003.83,354.98 965.41,420.81 " fill="none" id="CentroControl1-Horario1" style="stroke:#181818;stroke-width:1.0;"/><text fill="#000000" font-family="sans-serif" font-size="13" lengthAdjust="spacing" textLength="48.4453" x="1031.5" y="233.0669">maneja</text></g><!--link CentroControl1 to Ruta1--><g id="link_CentroControl1_Ruta1"><path codeLine="51" d="M639.86,52.1 C623.55,60.44 605.62,70.7 590.5,82 C572.32,95.58 554.44,113.59 540.69,128.73 " fill="none" id="CentroControl1-Ruta1" style="stroke:#181818;stroke-width:1.0;"/><text fill="#000000" font-family="sans-serif" font-size="13" lengthAdjust="spacing" textLength="69.5259" x="591.5" y="95.0669">administra</text></g><!--link Ruta1 to Parada1--><g id="link_Ruta1_Parada1"><path codeLine="53" d="M535.65,190.05 C541.19,199.3 546.71,209.77 550.5,220 C577.27,292.19 587.74,383.05 591.53,428.99 " fill="none" id="Ruta1-Parada1" style="stroke:#181818;stroke-width:1.0;"/><text fill="#000000" font-family="sans-serif" font-size="13" lengthAdjust="spacing" textLength="56.2847" x="581.5" y="310.0669">contiene</text></g><!--link Ruta1 to Parada2--><g id="link_Ruta1_Parada2"><path codeLine="54" d="M413.99,186.44 C361.89,203.32 299.64,229.33 252.5,267 C196.06,312.11 153.66,387.42 133.17,428.88 " fill="none" id="Ruta1-Parada2" style="stroke:#181818;stroke-width:1.0;"/><text fill="#000000" font-family="sans-serif" font-size="13" lengthAdjust="spacing" textLength="56.2847" x="253.5" y="310.0669">contiene</text></g><!--link Ruta1 to Bus1--><g id="link_Ruta1_Bus1"><path codeLine="55" d="M494.78,190.34 C479.39,212.5 458.29,242.88 441.72,266.74 " fill="none" id="Ruta1-Bus1" style="stroke:#181818;stroke-width:1.0;"/><text fill="#000000" font-family="sans-serif" font-size="13" lengthAdjust="spacing" textLength="69.5259" x="472.5" y="233.0669">administra</text></g><!--link Ruta1 to Tarifa1--><g id="link_Ruta1_Tarifa1"><path codeLine="56" d="M557.77,190.34 C592.9,215.13 642.62,250.23 677.63,274.95 " fill="none" id="Ruta1-Tarifa1" style="stroke:#181818;stroke-width:1.0;"/><text fill="#000000" font-family="sans-serif" font-size="13" lengthAdjust="spacing" textLength="32.9443" x="624.5" y="233.0669">tiene</text></g><!--link Bus1 to Conductor1--><g id="link_Bus1_Conductor1"><path codeLine="58" d="M370.51,344.25 C362.75,353.14 355.81,363.2 351.5,374 C344.6,391.32 345.28,412.25 347.72,428.95 " fill="none" id="Bus1-Conductor1" style="stroke:#181818;stroke-width:1.0;"/><text fill="#000000" font-family="sans-serif" font-size="13" lengthAdjust="spacing" textLength="32.9443" x="352.5" y="387.0669">tiene</text></g><!--link Bus1 to Horario1--><g id="link_Bus1_Horario1"><path codeLine="59" d="M502.51,335.58 C511.6,338.49 520.73,341.34 529.5,344 C635.89,376.26 758.79,409.96 842.48,432.37 " fill="none" id="Bus1-Horario1" style="stroke:#181818;stroke-width:1.0;"/><text fill="#000000" font-family="sans-serif" font-size="13" lengthAdjust="spacing" textLength="34.874" x="688.5" y="387.0669">sigue</text></g><!--link Bus1 to Parada1--><g id="link_Bus1_Parada1"><path codeLine="60" d="M411.89,344.16 C412.27,360.05 415.44,377.86 425.5,391 C438.68,408.22 456.96,421.07 476.64,430.64 " fill="none" id="Bus1-Parada1" style="stroke:#181818;stroke-width:1.0;"/><text fill="#000000" font-family="sans-serif" font-size="13" lengthAdjust="spacing" textLength="43.5386" x="426.5" y="387.0669">llega a</text></g><!--link Bus1 to Parada2--><g id="link_Bus1_Parada2"><path codeLine="61" d="M342.33,344.07 C291.31,370.27 224.2,404.74 177.01,428.97 " fill="none" id="Bus1-Parada2" style="stroke:#181818;stroke-width:1.0;"/><text fill="#000000" font-family="sans-serif" font-size="13" lengthAdjust="spacing" textLength="43.5386" x="277.5" y="387.0669">llega a</text></g><!--link Pasajero1 to Tarifa1--><g id="link_Pasajero1_Tarifa1"><path codeLine="63" d="M846.1,190.3 C833.38,199.48 819.64,209.85 807.5,220 C786.86,237.26 765.05,258.19 748.3,274.9 " fill="none" id="Pasajero1-Tarifa1" style="stroke:#181818;stroke-width:1.0;"/><text fill="#000000" font-family="sans-serif" font-size="13" lengthAdjust="spacing" textLength="32.4365" x="808.5" y="233.0669">paga</text></g><!--link Pasajero1 to Parada1--><g id="link_Pasajero1_Parada1"><path codeLine="64" d="M879.28,190.32 C864.65,229.46 834.58,298.5 790.5,344 C754.99,380.65 705.25,409.44 664.63,428.98 " fill="none" id="Pasajero1-Parada1" style="stroke:#181818;stroke-width:1.0;"/><text fill="#000000" font-family="sans-serif" font-size="13" lengthAdjust="spacing" textLength="43.5386" x="843.5" y="310.0669">llega a</text></g><!--SRC=[VLF1Rfj04Btp5IDoo8a8QDocaNfmKAecQYlBSZvWl8pTjM0NxIuzjEh7zDX3Jla4Vgm31Bm6jnn0tZVlpPkTvqjuKDQX4X8jv0G5VmI_o4BP_BOWoqeRnXtPG6yF91naf9pHcMxVHG8_0-17wN9h23v0sCEmCf95Aop2u5SmKDUrmu4XT2xtkcMidpRBA8cJyBmImbUsGBxE2WtcEEzzpwC8sRoetcJRl2sejrBmkLPjpVBxrT4SN2JnN3ZzZ_2hbvbiXaL1FGeNrmjVzAwsWzKIdP6YBh1pSfT5IVgc5nDOiLQEEIEBk3joikhkX_cmDAxZvTfNvYNajN3QpA_YiKO5g-QFeHzzWq8AQjVSWjprUX5bfvDRF93HSwKlQ9fdXC_DIpLeEJG7SftKPhb-lEVzlNrtyzxNsw2Hkt55bI6-AAvFhkR3-RHFsZ1nTF6DVpuesNF3-EOsZiCH-2Yxcq_ZyNJ7RUhZb0iefQgTxZjSmfgARbySRh8LYUPvnnjiSr-0bTPHYS4atL4qJd8B8UOio8K6mpE5etUkB57HuMnL_n-OY0NzASD3jBb0C4kIuhHDqFGVQ1UqYV88UcEyyeAkdY4lHaTq0FsfhDpN7kHvvV3l4N2AfITOS0pPgQ4AzmoVe6Uq_m80]--></g></svg>